<svg width="40" height="40" viewBox="0 0 40 40" fill="none" xmlns="http://www.w3.org/2000/svg">
<mask id="mask0_25_1009" style="mask-type:alpha" maskUnits="userSpaceOnUse" x="0" y="0" width="40" height="40">
<rect width="40" height="40" fill="#D9D9D9"/>
</mask>
<g mask="url(#mask0_25_1009)">
<path d="M26.6667 18.3333C27.1389 18.3333 27.5348 18.1736 27.8542 17.8542C28.1737 17.5347 28.3334 17.1389 28.3334 16.6667C28.3334 16.1945 28.1737 15.7986 27.8542 15.4792C27.5348 15.1597 27.1389 15 26.6667 15C26.1945 15 25.7987 15.1597 25.4792 15.4792C25.1598 15.7986 25 16.1945 25 16.6667C25 17.1389 25.1598 17.5347 25.4792 17.8542C25.7987 18.1736 26.1945 18.3333 26.6667 18.3333ZM13.3334 14.4444H21.6667V11.6667H13.3334V14.4444ZM7.50004 35C6.5556 31.8333 5.62504 28.6736 4.70837 25.5208C3.79171 22.3681 3.33337 19.1389 3.33337 15.8333C3.33337 13.2778 4.22226 11.1111 6.00004 9.33334C7.77782 7.55557 9.94449 6.66668 12.5 6.66668H20.8334C21.6389 5.61112 22.6181 4.79168 23.7709 4.20834C24.9237 3.62501 26.1667 3.33334 27.5 3.33334C28.1945 3.33334 28.7848 3.5764 29.2709 4.06251C29.757 4.54862 30 5.1389 30 5.83334C30 6.00001 29.9792 6.16668 29.9375 6.33334C29.8959 6.50001 29.8473 6.65279 29.7917 6.79168C29.6806 7.09723 29.5764 7.40973 29.4792 7.72918C29.382 8.04862 29.3056 8.37501 29.25 8.70834L33.0417 12.5H36.6667V24.125L31.9584 25.6667L29.1667 35H20V31.6667H16.6667V35H7.50004ZM9.58337 32.2223H13.889V28.8889H22.7778V32.2223H27.0834L29.6945 23.5278L33.889 22.0973V15.2778H31.8889L26.389 9.7778C26.4075 9.12963 26.4792 8.50232 26.6042 7.89584C26.7292 7.28934 26.8704 6.67591 27.0278 6.05555C26.0556 6.3148 25.1528 6.71526 24.3195 7.25693C23.4862 7.79859 22.8565 8.52776 22.4306 9.44443H12.5C10.7355 9.44443 9.22953 10.0681 7.98217 11.3155C6.73481 12.5628 6.11112 14.0688 6.11112 15.8333C6.11112 18.6511 6.50465 21.4041 7.29171 24.0925C8.07874 26.7808 8.84262 29.4908 9.58337 32.2223Z" fill="#0E12A2"/>
</g>
</svg>
