<svg width="40" height="40" viewBox="0 0 40 40" fill="none" xmlns="http://www.w3.org/2000/svg">
<mask id="mask0_25_1006" style="mask-type:alpha" maskUnits="userSpaceOnUse" x="0" y="0" width="40" height="40">
<rect width="40" height="40" fill="#D9D9D9"/>
</mask>
<g mask="url(#mask0_25_1006)">
<path d="M20 36.6667C17.6945 36.6667 15.5278 36.2292 13.5 35.3542C11.4723 34.4792 9.70837 33.2917 8.20837 31.7917C6.70837 30.2917 5.52087 28.5278 4.64587 26.5C3.77087 24.4722 3.33337 22.3056 3.33337 20C3.33337 17.6945 3.77087 15.5278 4.64587 13.5C5.52087 11.4722 6.70837 9.70834 8.20837 8.20834C9.70837 6.70834 11.4723 5.52084 13.5 4.64584C15.5278 3.77084 17.6945 3.33334 20 3.33334C22.3056 3.33334 24.4723 3.77084 26.5 4.64584C28.5278 5.52084 30.2917 6.70834 31.7917 8.20834C33.2917 9.70834 34.4792 11.4722 35.3542 13.5C36.2292 15.5278 36.6667 17.6945 36.6667 20C36.6667 22.3056 36.2292 24.4722 35.3542 26.5C34.4792 28.5278 33.2917 30.2917 31.7917 31.7917C30.2917 33.2917 28.5278 34.4792 26.5 35.3542C24.4723 36.2292 22.3056 36.6667 20 36.6667ZM20 33.8889C23.8773 33.8889 27.1615 32.5434 29.8525 29.8525C32.5435 27.1615 33.889 23.8773 33.889 20C33.889 16.1227 32.5435 12.8386 29.8525 10.1476C27.1615 7.45658 23.8773 6.11109 20 6.11109C16.1227 6.11109 12.8386 7.45658 10.1476 10.1476C7.45661 12.8386 6.11112 16.1227 6.11112 20C6.11112 23.8773 7.45661 27.1615 10.1476 29.8525C12.8386 32.5434 16.1227 33.8889 20 33.8889ZM20 30C17.2223 30 14.8612 29.0278 12.9167 27.0833C10.9723 25.1389 10 22.7778 10 20C10 17.2222 10.9723 14.8611 12.9167 12.9167C14.8612 10.9722 17.2223 10 20 10C22.7778 10 25.1389 10.9722 27.0834 12.9167C29.0278 14.8611 30 17.2222 30 20C30 22.7778 29.0278 25.1389 27.0834 27.0833C25.1389 29.0278 22.7778 30 20 30ZM20 27.2223C22 27.2223 23.7038 26.5186 25.1112 25.1111C26.5186 23.7037 27.2223 22 27.2223 20C27.2223 18 26.5186 16.2963 25.1112 14.8889C23.7038 13.4815 22 12.7778 20 12.7778C18 12.7778 16.2963 13.4815 14.8889 14.8889C13.4815 16.2963 12.7778 18 12.7778 20C12.7778 22 13.4815 23.7037 14.8889 25.1111C16.2963 26.5186 18 27.2223 20 27.2223ZM20 23.3333C19.0834 23.3333 18.2987 23.007 17.6459 22.3542C16.9931 21.7014 16.6667 20.9167 16.6667 20C16.6667 19.0833 16.9931 18.2986 17.6459 17.6458C18.2987 16.9931 19.0834 16.6667 20 16.6667C20.9167 16.6667 21.7014 16.9931 22.3542 17.6458C23.007 18.2986 23.3334 19.0833 23.3334 20C23.3334 20.9167 23.007 21.7014 22.3542 22.3542C21.7014 23.007 20.9167 23.3333 20 23.3333Z" fill="#0E12A2"/>
</g>
</svg>
