<svg width="40" height="40" viewBox="0 0 40 40" fill="none" xmlns="http://www.w3.org/2000/svg">
<mask id="mask0_25_1015" style="mask-type:alpha" maskUnits="userSpaceOnUse" x="0" y="0" width="40" height="40">
<rect width="40" height="40" fill="#D9D9D9"/>
</mask>
<g mask="url(#mask0_25_1015)">
<path d="M25 33.3333C21.2777 33.3333 18.125 32.0417 15.5416 29.4583C12.9583 26.875 11.6666 23.7222 11.6666 20C11.6666 16.2778 12.9583 13.125 15.5416 10.5417C18.125 7.95832 21.2777 6.66666 25 6.66666C28.7222 6.66666 31.875 7.95832 34.4583 10.5417C37.0416 13.125 38.3333 16.2778 38.3333 20C38.3333 23.7222 37.0416 26.875 34.4583 29.4583C31.875 32.0417 28.7222 33.3333 25 33.3333ZM12.0555 32.8611C8.98146 32.3426 6.48145 30.8565 4.5555 28.4028C2.62958 25.9491 1.66663 23.1481 1.66663 20C1.66663 16.8519 2.62958 14.0509 4.5555 11.5972C6.48145 9.1435 8.98146 7.65739 12.0555 7.13887V9.91666C9.75924 10.4444 7.91663 11.6574 6.52771 13.5555C5.13882 15.4537 4.44438 17.6018 4.44438 20C4.44438 22.3982 5.13882 24.5463 6.52771 26.4444C7.91663 28.3426 9.75924 29.5556 12.0555 30.0833V32.8611ZM25 30.5556C27.9074 30.5556 30.3935 29.5232 32.4583 27.4583C34.5231 25.3935 35.5555 22.9074 35.5555 20C35.5555 17.0926 34.5231 14.6065 32.4583 12.5417C30.3935 10.4768 27.9074 9.44441 25 9.44441C22.0925 9.44441 19.6064 10.4768 17.5416 12.5417C15.4768 14.6065 14.4444 17.0926 14.4444 20C14.4444 22.9074 15.4768 25.3935 17.5416 27.4583C19.6064 29.5232 22.0925 30.5556 25 30.5556Z" fill="#0E12A2"/>
</g>
</svg>
