<svg width="68" height="68" viewBox="0 0 68 68" fill="none" xmlns="http://www.w3.org/2000/svg">
<mask id="mask0_25_964" style="mask-type:alpha" maskUnits="userSpaceOnUse" x="0" y="0" width="68" height="68">
<rect width="68" height="68" fill="#D9D9D9"/>
</mask>
<g mask="url(#mask0_25_964)">
<path d="M17.0001 56.6666C13.8834 56.6666 11.2154 55.5569 8.99592 53.3374C6.77647 51.118 5.66675 48.4499 5.66675 45.3333V22.6666C5.66675 19.5499 6.77647 16.8819 8.99592 14.6624C11.2154 12.443 13.8834 11.3333 17.0001 11.3333H51.0001C54.1168 11.3333 56.7848 12.443 59.0043 14.6624C61.2237 16.8819 62.3334 19.5499 62.3334 22.6666V45.3333C62.3334 48.4499 61.2237 51.118 59.0043 53.3374C56.7848 55.5569 54.1168 56.6666 51.0001 56.6666H17.0001ZM17.0001 23.1388H51.0001C52.2594 23.1388 53.4478 23.3199 54.5654 23.6819C55.683 24.0439 56.6982 24.5791 57.6112 25.2874V22.6666C57.6112 20.8249 56.9698 19.2626 55.6869 17.9798C54.404 16.6969 52.8418 16.0554 51.0001 16.0554H17.0001C15.1584 16.0554 13.5961 16.6969 12.3133 17.9798C11.0304 19.2626 10.3889 20.8249 10.3889 22.6666V25.2874C11.3019 24.5791 12.3172 24.0439 13.4348 23.6819C14.5524 23.3199 15.7408 23.1388 17.0001 23.1388ZM10.6723 32.6305L43.7043 40.6111C44.0663 40.7055 44.4362 40.7134 44.814 40.6347C45.1918 40.5559 45.5223 40.3907 45.8057 40.1388L56.6432 31.0722C56.0608 30.1119 55.2737 29.3367 54.2821 28.7464C53.2904 28.1561 52.1964 27.861 51.0001 27.861H17.0001C15.489 27.861 14.1549 28.3057 12.998 29.1951C11.8411 30.0844 11.0658 31.2296 10.6723 32.6305Z" fill="#0E12A2"/>
</g>
</svg>
