<svg width="40" height="40" viewBox="0 0 40 40" fill="none" xmlns="http://www.w3.org/2000/svg">
<mask id="mask0_25_1018" style="mask-type:alpha" maskUnits="userSpaceOnUse" x="0" y="0" width="40" height="40">
<rect width="40" height="40" fill="#D9D9D9"/>
</mask>
<g mask="url(#mask0_25_1018)">
<path d="M6.11112 35C5.36112 35 4.71067 34.7246 4.15975 34.1736C3.60883 33.6227 3.33337 32.9723 3.33337 32.2223V12.7778C3.33337 12.0278 3.60883 11.3773 4.15975 10.8264C4.71067 10.2755 5.36112 10 6.11112 10H13.3334V6.11109C13.3334 5.36109 13.6088 4.71064 14.1598 4.15972C14.7107 3.6088 15.3611 3.33334 16.1111 3.33334H23.889C24.639 3.33334 25.2894 3.6088 25.8403 4.15972C26.3913 4.71064 26.6667 5.36109 26.6667 6.11109V10H33.889C34.639 10 35.2894 10.2755 35.8403 10.8264C36.3913 11.3773 36.6667 12.0278 36.6667 12.7778V32.2223C36.6667 32.9723 36.3913 33.6227 35.8403 34.1736C35.2894 34.7246 34.639 35 33.889 35H6.11112ZM6.11112 32.2223H33.889V12.7778H6.11112V32.2223ZM16.1111 10H23.889V6.11109H16.1111V10Z" fill="#0E12A2"/>
</g>
</svg>
